<svg width="153" height="36" viewBox="0 0 153 36" fill="none" xmlns="http://www.w3.org/2000/svg">
<path d="M108.38 29.916L110.794 17.5045H106.843L107.143 15.9481H116.98L116.681 17.5045H112.73L110.315 29.916H108.38Z" fill="#013D5B"/>
<path d="M114.33 29.916L116.285 19.899L117.782 19.7394V20.6573C118.766 19.9123 119.724 19.5398 120.655 19.5398C121.014 19.5398 121.32 19.5864 121.573 19.6795L121.274 21.1761C120.954 21.0963 120.662 21.0564 120.396 21.0564C119.465 21.0564 118.567 21.3557 117.702 21.9543L116.146 29.916H114.33Z" fill="#013D5B"/>
<path d="M126.745 29.9559V29.2775C125.654 29.9027 124.623 30.2153 123.652 30.2153C122.735 30.2153 122.003 29.9626 121.457 29.4571C120.925 28.9515 120.659 28.2665 120.659 27.4018C120.659 26.71 120.839 26.1048 121.198 25.5859C121.571 25.0538 122.069 24.6481 122.695 24.3687C123.32 24.0761 124.018 23.9298 124.79 23.9298C125.668 23.9298 126.586 24.0495 127.543 24.2889L127.743 23.2513C127.783 23.0119 127.803 22.799 127.803 22.6128C127.803 22.0541 127.603 21.635 127.204 21.3557C126.818 21.063 126.253 20.9167 125.508 20.9167C124.337 20.9167 123.273 21.1096 122.315 21.4953L122.575 20.1385C123.612 19.6995 124.717 19.48 125.887 19.48C127.071 19.48 127.982 19.7327 128.621 20.2382C129.273 20.7437 129.599 21.4554 129.599 22.3733C129.599 22.7325 129.565 23.0651 129.499 23.371L128.242 29.7963L126.745 29.9559ZM124.331 28.7986C124.743 28.7986 125.169 28.7387 125.608 28.619C126.047 28.4859 126.446 28.3064 126.805 28.0802L127.304 25.4662C126.599 25.2933 125.867 25.2068 125.109 25.2068C124.284 25.2068 123.646 25.3864 123.193 25.7456C122.754 26.0915 122.535 26.597 122.535 27.2621C122.535 28.2864 123.134 28.7986 124.331 28.7986Z" fill="#013D5B"/>
<path d="M132.348 29.916L130.612 19.7793H132.467L133.485 27.9605L137.875 19.7793H139.711L134.024 29.916H132.348Z" fill="#013D5B"/>
<path d="M146.047 29.5369C145.621 29.7497 145.136 29.916 144.59 30.0357C144.045 30.1554 143.513 30.2153 142.994 30.2153C141.664 30.2153 140.639 29.8628 139.921 29.1577C139.216 28.4394 138.863 27.4151 138.863 26.0848C138.863 24.7944 139.103 23.6437 139.582 22.6327C140.061 21.6217 140.692 20.8435 141.477 20.2981C142.275 19.7527 143.153 19.48 144.111 19.48C145.202 19.48 146.053 19.7726 146.665 20.358C147.291 20.9433 147.603 21.7481 147.603 22.7724C147.603 23.4908 147.47 24.3089 147.204 25.2268H140.719C140.706 25.3864 140.692 25.5527 140.679 25.7256C140.666 25.8853 140.659 26.0449 140.659 26.2045C140.659 27.9206 141.537 28.7786 143.293 28.7786C143.825 28.7786 144.357 28.7254 144.889 28.619C145.435 28.4993 145.914 28.3463 146.326 28.16L146.047 29.5369ZM144.011 20.8169C143.293 20.8169 142.668 21.0896 142.136 21.635C141.617 22.1804 141.231 22.9453 140.978 23.9298H145.787C145.867 23.544 145.907 23.1648 145.907 22.7924C145.907 22.1405 145.748 21.6483 145.428 21.3158C145.109 20.9832 144.637 20.8169 144.011 20.8169Z" fill="#013D5B"/>
<path d="M147.875 29.916L150.788 14.9304L152.644 14.7109L149.691 29.916H147.875Z" fill="#013D5B"/>
<path d="M67.6843 26.046C63.4272 29.0875 58.4068 32.2471 52.9753 35.5839L52.7698 35.702C52.711 35.7611 52.6817 35.8497 52.7404 35.9383C52.7991 35.9973 52.8872 36.0269 52.9753 35.9678L53.1514 35.8792C57.7315 33.4578 63.0162 30.623 68.3303 27.6701C68.3596 27.6406 68.389 27.6406 68.4183 27.611C68.0954 27.1681 67.8605 26.6366 67.6843 26.046ZM95.5464 3.33803C88.8525 -4.07381 45.7822 2.5998 27.462 6.61577L27.0216 6.70436C26.9335 6.73389 26.8748 6.79294 26.9041 6.88153C26.9335 6.97012 26.9922 7.02918 27.0803 7.02918L27.4913 6.94059C42.6701 4.2239 74.2315 0.444163 81.0135 7.23588C83.098 9.30293 82.5989 11.9606 80.1915 15.1202C81.4833 15.947 82.4228 17.2758 82.8338 18.9295C92.2288 12.6397 98.5411 6.6453 95.5464 3.33803Z" fill="#CC2427"/>
<path d="M70.3856 24.0977C70.4737 26.7258 72.1179 28.8519 74.2611 28.8519C78.4301 28.8519 80.1917 23.7138 80.0743 20.2884C79.9862 17.6603 78.3127 15.5342 76.1695 15.5342C72.5876 15.5342 70.2682 20.6427 70.3856 24.0977ZM68.1837 23.95C68.0369 19.4911 71.5013 14.9436 76.5511 14.9436C79.9275 14.9436 82.1294 17.2174 82.2469 20.6723C82.3937 25.3674 79.1641 29.7082 73.8794 29.7082C70.5324 29.6787 68.3305 27.4345 68.1837 23.95Z" fill="#013D5B"/>
<path d="M20.3874 22.7679C20.2113 22.827 19.9764 22.9155 19.6828 22.9746C19.3892 23.0337 18.8607 23.1222 18.0974 23.2699C17.5689 23.3585 17.2166 23.4766 17.0111 23.6242C16.8056 23.7719 16.6882 23.9491 16.6588 24.1558C16.6294 24.392 16.6882 24.5692 16.8937 24.7168C17.0992 24.8645 17.4221 24.9235 17.9212 24.9235C18.2736 24.9235 18.6259 24.8645 18.9782 24.7464C19.3305 24.6282 19.6241 24.4806 19.8296 24.3034C20.0058 24.1558 20.1232 23.9786 20.2113 23.7719C20.2406 23.5947 20.2994 23.2699 20.3874 22.7679ZM24.7913 20.0217C24.762 20.4351 24.7033 20.7894 24.5858 21.4095L23.8518 25.6027C23.7638 25.9866 23.9106 26.2819 24.2629 26.4886L24.2335 26.6658H19.9764L19.947 25.5732C19.3305 25.9571 18.5672 26.2523 17.8919 26.4591C17.2166 26.6362 16.6588 26.7248 15.8661 26.7248C14.4862 26.7248 13.6935 26.5772 13.165 26.1047C12.6072 25.6027 12.343 25.2779 12.3723 24.5987C12.4017 24.2148 12.6072 23.7128 12.8714 23.3585C13.165 23.0041 13.5761 22.7679 14.0164 22.5612C14.4568 22.3545 14.9559 22.2068 15.7193 22.0887C16.4826 21.9706 17.5102 21.8525 18.9195 21.7344C19.6535 21.6753 20.0938 21.4981 20.3287 21.4095C20.6223 21.2914 20.7397 21.1733 20.7691 20.9371C20.8572 20.4941 20.7104 20.2579 20.1526 20.1398C18.6259 19.8445 15.7487 20.3465 14.2807 20.7008L15.0734 18.5157C17.0111 18.2204 18.8607 18.0432 20.7691 18.0432C23.8225 18.0432 24.8207 18.8996 24.7913 20.0217Z" fill="#013D5B"/>
<path d="M37.0918 26.6362L38.5598 18.25H42.6407L41.1728 26.6362H37.0918ZM38.7946 16.3306C38.9121 15.6514 39.9984 15.0903 41.2021 15.0903C42.4058 15.0903 43.2866 15.6514 43.1692 16.3306C43.0518 17.0097 41.9655 17.5708 40.7617 17.5708C39.558 17.5708 38.6772 17.0393 38.7946 16.3306Z" fill="#013D5B"/>
<path d="M57.0853 22.7977C56.9091 22.8567 56.6742 22.9158 56.3806 23.0044C56.087 23.0634 55.5586 23.152 54.7952 23.2701C54.2668 23.3587 53.9144 23.4768 53.7089 23.6245C53.5034 23.7721 53.386 23.9493 53.3566 24.156C53.3273 24.3922 53.386 24.5694 53.5915 24.7171C53.797 24.8647 54.1493 24.9238 54.6191 24.9238C54.9714 24.9238 55.3237 24.8647 55.676 24.7761C56.0283 24.658 56.3219 24.5103 56.5274 24.3036C56.6742 24.156 56.7917 23.9788 56.8798 23.7721C56.9385 23.6245 56.9972 23.2997 57.0853 22.7977ZM61.4892 20.0514C61.4598 20.4648 61.4011 20.8192 61.2837 21.4393L60.5497 25.6325C60.491 26.0163 60.6084 26.2821 60.9607 26.4888L60.9314 26.6364H56.6742L56.6449 25.5734C56.0283 25.9573 55.265 26.2526 54.5897 26.4593C53.9144 26.6364 53.3566 26.725 52.5346 26.725C51.1547 26.725 50.3913 26.5774 49.8335 26.1049C49.2757 25.6029 49.0114 25.2781 49.0408 24.5989C49.0701 24.2151 49.2463 23.7131 49.5399 23.3587C49.8335 23.0044 50.2445 22.7681 50.6849 22.5614C51.1253 22.3547 51.6538 22.2071 52.3878 22.089C53.1511 21.9708 54.1787 21.8527 55.5879 21.7346C56.3219 21.6755 56.7623 21.4984 56.9678 21.4393C57.2614 21.3212 57.3789 21.2031 57.4376 20.9668C57.5257 20.5534 57.3789 20.2877 56.821 20.1696C55.2943 19.8743 52.4171 20.3763 50.9491 20.7306L51.7418 18.5454C53.7089 18.2502 55.5292 18.073 57.4376 18.073C60.5203 18.0435 61.4892 18.9293 61.4892 20.0514Z" fill="#013D5B"/>
<path d="M11.8139 23.6252C10.4927 23.8909 9.75871 23.9795 8.43754 23.9795C6.49981 23.9795 4.94377 23.0051 5.03184 21.2333C5.09056 20.0521 6.49981 17.5422 10.0229 17.5422C11.1386 17.5422 12.0194 17.7489 13.1938 18.428L13.7222 15.5342C12.1368 14.9141 11.0799 14.8255 9.69999 14.855C5.0612 14.9141 0.598572 17.0402 0.0407436 21.3514C-0.517085 25.7513 4.79697 26.8439 7.17508 26.8439C8.55497 26.8439 9.96423 26.7848 11.2854 26.6372L11.8139 23.6252Z" fill="#013D5B"/>
<path d="M44.8741 18.2209L45.1677 16.5082L49.4248 15.5632L48.9844 18.1913H51.069L50.6873 19.8745H48.6615L47.4284 26.6071C47.4284 26.6071 43.3181 26.5776 43.3181 26.6071L44.5512 19.904H42.9951L43.3181 18.2209H44.8741Z" fill="#013D5B"/>
<path d="M65.6001 26.6362H61.4604L63.545 14.9722L67.5966 15.0903L65.6001 26.6362Z" fill="#013D5B"/>
<path d="M31.7185 20.2287C31.19 20.2287 30.6909 20.3763 30.2799 20.7011C29.8688 21.026 29.5752 21.4984 29.4872 22.1481C29.3697 22.8863 29.4284 23.3883 29.722 23.7427C30.0156 24.0675 30.4267 24.2151 30.9845 24.2151C31.3662 24.2151 31.7478 24.1561 32.0121 24.0084C32.3644 23.8312 32.5993 23.6245 32.8048 23.3292C33.0397 23.0044 33.1865 22.6501 33.2452 22.2367C33.3626 21.587 33.2745 21.085 32.9516 20.7602C32.658 20.4059 32.2469 20.2287 31.7185 20.2287ZM24.2905 29.5304L26.2576 18.3093H29.8395L29.5752 19.7562C29.8982 19.3428 30.3679 18.9885 31.0726 18.6932C31.7478 18.3979 32.5405 18.1912 33.392 18.1912C34.3315 18.1912 34.8893 18.2502 35.5939 18.6046C36.2986 18.9589 36.7683 19.4904 37.0325 20.1991C37.2968 20.8783 37.3555 21.6461 37.2087 22.4729C36.9738 23.8608 36.2986 24.9533 35.1829 25.7506C34.0966 26.5479 33.0984 26.7546 31.7185 26.7546C31.2194 26.7546 30.8083 26.6956 30.456 26.607C30.1331 26.5184 29.8395 26.4003 29.634 26.2822C29.4284 26.164 29.2229 25.9573 28.9587 25.662L28.2834 29.5008H24.2905V29.5304Z" fill="#013D5B"/>
<path d="M98.1878 21.2613C98.1584 20.5822 97.8354 20.1392 97.1308 20.1392C95.4573 20.1392 93.6958 23.417 93.3728 24.7458C96.1032 24.7458 98.2465 23.1217 98.1878 21.2613ZM98.5401 26.4289L98.863 26.6356C98.041 28.2893 96.3968 29.6476 94.4298 29.6476C92.8444 29.6476 91.5232 28.5846 91.4645 26.5766C91.347 22.974 94.6646 19.6667 97.4244 19.6667C98.5988 19.6667 99.6851 20.1687 99.7438 21.468C99.8319 24.3324 95.8684 25.1887 93.226 25.2478C93.1379 25.5431 93.1086 25.8384 93.1379 26.3108C93.1673 27.492 93.9013 28.496 95.3693 28.496C96.6317 28.4665 97.8942 27.4329 98.5401 26.4289Z" fill="#013D5B"/>
<path d="M82.2174 21.1737C82.511 21.1442 82.9514 21.0851 83.1569 21.0851C83.4505 21.0851 83.7441 21.1442 83.7441 21.4395C83.7441 21.6166 83.4212 22.8864 83.3624 23.1817L82.7165 25.987C82.4523 27.1386 82.1881 28.3493 81.9238 29.2942H83.568L84.4781 24.8353C87.2966 21.9119 88.3535 20.967 89.0288 20.967C89.3224 20.967 89.5279 21.1146 89.5573 21.469C89.5866 21.971 89.2637 23.1521 89.1463 23.477L88.2068 26.7252C88.0012 27.4634 87.8251 28.1131 87.8544 28.5855C87.8838 29.2942 88.3242 29.6191 88.9407 29.6191C90.1445 29.6191 90.9959 28.3788 91.7593 27.1386L91.5244 26.7252C91.2308 27.2272 90.5262 28.2902 89.9683 28.2902C89.7922 28.2902 89.616 28.1721 89.616 27.8768C89.5866 27.4929 89.7628 26.9319 89.8802 26.548L90.9078 22.7387C91.1721 21.6757 91.3189 21.026 91.3189 20.6422C91.2895 19.9335 90.8785 19.6086 90.2619 19.6086C89.1756 19.6086 87.7664 20.4059 84.7423 23.8904H84.713L85.0946 22.1777C85.3002 21.2327 85.5057 20.2878 85.7112 19.6086C84.6543 19.9925 83.1863 20.4059 82.2468 20.5831L82.2174 21.1737Z" fill="#013D5B"/>
</svg>
